<?xml version="1.0" encoding="utf-8"?>
<!-- Generator: Adobe Illustrator 16.0.0, SVG Export Plug-In . SVG Version: 6.00 Build 0)  -->
<!DOCTYPE svg PUBLIC "-//W3C//DTD SVG 1.1//EN" "http://www.w3.org/Graphics/SVG/1.1/DTD/svg11.dtd">
<svg version="1.1" id="레이어_1" xmlns="http://www.w3.org/2000/svg" xmlns:xlink="http://www.w3.org/1999/xlink" x="0px"
	 y="0px" width="926px" height="274px" viewBox="0 0 926 274" enable-background="new 0 0 926 274" xml:space="preserve">
<g>
	<path fill="#CCCCCC" d="M12.3,222V24H123v14.7h14.7v154.2H123V207.3h-14.4V222H12.3z M85.2,198.6V184.2h14.4V47.4H50.4v151.2H85.2z
		"/>
	<path fill="#CCCCCC" d="M176.7,222.9v-14.7h-14.4V97.8h14.4V83.1h96v81.6h-14.4V179.1h-58.2v20.4h72.6v23.4H176.7z M234.9,156
		v-49.5h-34.8V156H234.9z"/>
	<path fill="#CCCCCC" d="M297.299,222.9v-23.4h72.6v-34.8h-58.2V150h-14.4V97.8h14.4V83.1h96v23.4h-72.6v34.8h58.2V156h14.4v52.2
		h-14.4v14.7H297.299z"/>
	<path fill="#CCCCCC" d="M432.298,222V24h38.101v102h5.699v-14.7h14.4V96.9h14.7V82.2h14.399V67.8h38.101v23.1h-14.7v14.7h-14.4V120
		h-14.7v14.7h-14.399V155.1h14.399v14.4h14.7v14.7h14.4V198.6h14.7V222h-38.101v-14.7h-14.399V192.9h-14.7v-14.7h-14.4v-14.4h-5.699
		V222H432.298z"/>
	<path fill="#CCCCCC" d="M581.397,221.7V105.3h-14.4V81.9h14.4V9.3h38.1v72.6h43.5v23.4h-43.5v93h29.1v23.4H581.397z"/>
	<path fill="#CCCCCC" d="M686.694,222.6V208.2h-14.4V82.8h14.4V68.4h81.6v14.4h14.4v125.4h-14.4V222.6H686.694z M744.896,199.2V91.8
		h-34.802v107.4H744.896z"/>
	<path fill="#CCCCCC" d="M807.293,267.3V83.7h96v14.7h14.4v96h-14.4V209.1h-58.2v58.2H807.293L807.293,267.3z M879.894,185.7v-78.6
		h-34.801v78.6H879.894z"/>
</g>
</svg>
