<?xml version="1.0" encoding="utf-8"?>
<!-- Generator: Adobe Illustrator 16.0.0, SVG Export Plug-In . SVG Version: 6.00 Build 0)  -->
<!DOCTYPE svg PUBLIC "-//W3C//DTD SVG 1.1//EN" "http://www.w3.org/Graphics/SVG/1.1/DTD/svg11.dtd" [
	<!ENTITY ns_extend "http://ns.adobe.com/Extensibility/1.0/">
	<!ENTITY ns_ai "http://ns.adobe.com/AdobeIllustrator/10.0/">
	<!ENTITY ns_graphs "http://ns.adobe.com/Graphs/1.0/">
	<!ENTITY ns_vars "http://ns.adobe.com/Variables/1.0/">
	<!ENTITY ns_imrep "http://ns.adobe.com/ImageReplacement/1.0/">
	<!ENTITY ns_sfw "http://ns.adobe.com/SaveForWeb/1.0/">
	<!ENTITY ns_custom "http://ns.adobe.com/GenericCustomNamespace/1.0/">
	<!ENTITY ns_adobe_xpath "http://ns.adobe.com/XPath/1.0/">
]>
<svg version="1.1" id="레이어_1" xmlns:x="&ns_extend;" xmlns:i="&ns_ai;" xmlns:graph="&ns_graphs;"
	 xmlns="http://www.w3.org/2000/svg" xmlns:xlink="http://www.w3.org/1999/xlink" x="0px" y="0px" width="750px" height="387px"
	 viewBox="98.5 68.5 750 387" enable-background="new 98.5 68.5 750 387" xml:space="preserve">
<metadata>
	<sfw  xmlns="&ns_sfw;">
		<slices></slices>
		<sliceSourceBounds  height="374.627" width="739.284" x="103.183" y="110.772" bottomLeftOrigin="true"></sliceSourceBounds>
		<optimizationSettings></optimizationSettings>
	</sfw>
</metadata>
<g>
	<g>
		<path fill="#8A4DFA" d="M105.183,293.5h-1.5V88.3h139.8v1.5l23.4,23.7v203.4h-59.7l-18.9-18.9v18.9h-59.4L105.183,293.5z
			 M151.382,280v-65.7h44.4V280h34.2V101.8h-112.8V280H151.382z M151.382,193.6v-70.8h44.4v70.8H151.382z"/>
		<path fill="#FA4D4D" d="M338.283,153.7h28.799v1.5l36.301,36.6v124.8h-59.4l-5.699-5.698v5.698h-59.401l-23.7-23.398h-1.5V75.1
			h60.899v1.5l23.701,23.7V153.7z M301.082,279.7v-91.5h31.5v91.5h33.9v-99.6h-12.9v-12.9h-52.5V88.6h-33.899v191.1H301.082z"/>
		<path fill="#FA4D4D" d="M399.181,281.2h-1.5V181h12.9v-39.6h113.4v1.8l23.398,23.4v144.9h-105.6l-6.9-6.9h-12L399.181,281.2z
			 M510.481,280.9v-126h-86.4v21.3h52.5v18.3h-65.4v73.2h12.9v13.2H510.481L510.481,280.9z M445.081,259.9v-44.7h31.5v44.7H445.081z
			"/>
		<path fill="#FA4D4D" d="M636.776,253.9h-1.801v-74.4h6l-4.199-4.2h-1.801v-74.4h61.199v1.8l23.4,23.4v72.6h-6l6,6v72.6h-59.4
			L636.776,253.9z M682.676,161.8v-47.4h-34.198v47.4H682.676z M682.676,240.4V193h-34.198v47.4H682.676z"/>
		<path fill="#FA4D4D" d="M724.074,306.4h-1.8v-46.5l13.199-0.6v-26.7h12.899v-83.4h-12.899v-26.1h-13.199V75.4h61.199v1.5
			l36.601,36.6v12.9l13.2,13.2v151.2h-13.2V316.9h-12.9V330.1h-59.699L724.074,306.4z M769.975,292.9V280h13.199v-26.1h13.2v-126
			h-13.2v-26.1h-13.199V88.9h-34.199v20.7h13.199v26.1h12.899v110.4h-12.899v26.1h-13.199v20.7H769.975L769.975,292.9z"/>
		<path fill="#D1D1D1" d="M105.955,439.359h-0.64v-87.553h25.984v0.641l4.992,4.992h13.696v-5.633h25.984v0.641l10.112,10.111
			v86.784h-70.144L105.955,439.359z M170.21,433.6v-76.031h-14.464v67.071h-7.808V363.2h-14.592v61.439h-7.808v-67.071h-14.464
			V433.6H170.21z"/>
		<path fill="#D1D1D1" d="M185.058,434.111h-0.64v-54.017h5.504v-5.632h48.384v0.769l9.984,9.983v42.111h-2.432l2.432,2.561v19.84
			h-42.112l-5.888-5.632h-5.12L185.058,434.111z M232.546,433.983v-8.96h-27.904v-7.937h22.4v-5.504h5.504v-31.36h-36.864v5.633
			h-5.504v42.495h5.504v5.633H232.546z M204.642,408.256v-18.943h13.44v18.943H204.642z"/>
		<path fill="#D1D1D1" d="M281.953,379.712h12.289v0.64l15.486,15.616v47.744h-5.504v5.504h-47.615l-10.112-9.983h-0.64v-93.057
			h25.984v0.641l10.112,10.111V379.712z M288.48,433.472v-5.504h5.504v-36.992h-5.504v-5.504h-22.399v-33.536h-14.464v81.536H288.48
			z M266.082,424.512v-30.08h13.44v30.08H266.082z"/>
		<path fill="#D1D1D1" d="M346.335,439.359h-0.641v-87.553h53.889v0.641l9.983,10.111v53.248h-5.504v5.633h-22.271v27.903h-25.345
			L346.335,439.359z M365.919,433.6v-28.031h22.399v-5.504h5.504v-42.496h-42.367V433.6H365.919z M365.919,396.735v-30.208h13.439
			v30.208H365.919z"/>
		<path fill="#D1D1D1" d="M407.774,434.111h-0.641v-59.647h26.112v0.769l4.992,4.863h22.912v0.769l9.982,9.983v33.408l5.633,5.632
			v17.152h-50.688l-2.944-2.944h-5.248L407.774,434.111z M461.022,433.983v-8.96h-5.633v-39.168h-14.465v39.168h-13.438v-44.801
			h-14.592v48.128h5.632v5.633H461.022z"/>
		<path fill="#D1D1D1" d="M505.949,379.712h12.288v0.64l15.486,15.616v47.744h-5.504v5.504h-47.615l-10.111-9.983h-0.642v-93.057
			h25.984v0.641l10.112,10.111L505.949,379.712L505.949,379.712z M512.477,433.472v-5.504h5.505v-36.992h-5.505v-5.504h-22.398
			v-33.536h-14.464v81.536H512.477z M490.077,424.512v-30.08h13.438v30.08H490.077z"/>
		<path fill="#D1D1D1" d="M531.549,439.231h-0.769v-93.057h26.111v0.641l9.983,10.111v92.288h-25.344L531.549,439.231z
			 M551.133,433.472v-81.536H536.54v81.536H551.133z"/>
		<path fill="#D1D1D1" d="M566.107,439.231h-0.77v-93.057h26.112v0.641l9.982,10.111v92.288h-25.344L566.107,439.231z
			 M585.691,377.664v-25.729h-14.594v25.729H585.691z M585.691,433.472v-48h-14.594v48H585.691z"/>
		<path fill="#D1D1D1" d="M599.771,439.743h-0.641v-20.479h8.192l-7.552-7.552h-0.642v-31.616h5.505v-5.632h48.384v0.769
			l9.983,9.983v19.84h-8.063l8.063,8.192v30.848h-5.504v5.632h-47.616L599.771,439.743z M641.754,433.983v-5.633h5.504v-20.096
			h-5.504v-5.632h-22.398V389.31h27.902v-9.088h-36.862v5.632h-5.505v20.097h5.505v5.633h22.398v13.439h-27.903v8.96
			L641.754,433.983L641.754,433.983z"/>
		<path fill="#D1D1D1" d="M697.945,379.712h12.288v0.64l15.486,15.616v53.248h-25.344l-2.432-2.433v2.433h-25.346l-10.11-9.983
			h-0.642v-93.057h25.984v0.641l10.112,10.111v22.784H697.945z M682.073,433.472v-39.04h13.438v39.04h14.464v-42.496h-5.504v-5.504
			h-22.398v-33.536h-14.464v81.536H682.073z"/>
		<path fill="#D1D1D1" d="M723.929,434.111h-0.641v-54.017h5.505v-5.632h48.384v0.769l9.983,9.983v42.111h-2.433l2.433,2.561v19.84
			h-42.111l-5.889-5.632h-5.12L723.929,434.111z M771.416,433.983v-8.96h-27.903v-7.937h22.399v-5.504h5.504v-31.36h-36.863v5.633
			h-5.504v42.495h5.504v5.633H771.416z M743.513,408.256v-18.943h13.439v18.943H743.513z"/>
		<path fill="#D1D1D1" d="M820.696,380.096h12.288v0.641l9.982,9.983v19.84h-22.271v39.04h-25.346l-10.11-9.983H784.6v-70.783
			h25.984v0.768l10.112,9.984V380.096z M804.824,433.855v-39.04h22.398v-8.96h-22.398v-11.265H790.36v59.265H804.824z"/>
	</g>
</g>
</svg>
