<?xml version="1.0" encoding="utf-8"?>
<!-- Generator: Adobe Illustrator 16.0.0, SVG Export Plug-In . SVG Version: 6.00 Build 0)  -->
<!DOCTYPE svg PUBLIC "-//W3C//DTD SVG 1.1//EN" "http://www.w3.org/Graphics/SVG/1.1/DTD/svg11.dtd">
<svg version="1.1" id="레이어_1" xmlns="http://www.w3.org/2000/svg" xmlns:xlink="http://www.w3.org/1999/xlink" x="0px"
	 y="0px" width="714px" height="228px" viewBox="0 0 714 228" enable-background="new 0 0 714 228" xml:space="preserve">
<g>
	<path fill="#CCCCCC" d="M10.2,219V21h23.1v14.7H48V50.1h14.4v14.7h14.7v14.4h14.4v14.7h6V79.2h14.4V64.8h14.7V50.1H141V35.7h14.7
		V21h23.1v198H141V87.9h-5.7V102.6h-14.7V117h-14.4v14.7H82.8V117H68.4v-14.4H53.7V87.9H48V219H10.2z"/>
	<path fill="#CCCCCC" d="M218.698,219.6V205.2h-14.4V79.8h14.4V65.4h81.6V79.8h14.4v125.4h-14.4V219.6H218.698z M276.898,196.2V88.8
		h-34.8v107.4H276.898z"/>
	<path fill="#CCCCCC" d="M339.297,218.7V6.3h37.8v87.3h58.2V108h14.4v96.3h-14.4v14.4H339.297z M411.897,195.3V117h-34.8v78.3
		H411.897z"/>
	<path fill="#CCCCCC" d="M473.096,73.2V6.3h37.8v66.9H473.096z M473.096,218.7V93.6h37.8V218.7H473.096z"/>
	<path fill="#CCCCCC" d="M533.096,218.7V6.3h37.8v212.4H533.096z"/>
	<path fill="#CCCCCC" d="M608.695,219.9v-14.7h-14.4V94.8h14.4V80.1h96V161.7h-14.4V176.1h-58.2v20.4h72.6v23.4H608.695z
		 M666.895,153v-49.5h-34.8V153H666.895z"/>
</g>
</svg>
