<?xml version="1.0" encoding="utf-8"?>
<!-- Generator: Adobe Illustrator 16.0.0, SVG Export Plug-In . SVG Version: 6.00 Build 0)  -->
<!DOCTYPE svg PUBLIC "-//W3C//DTD SVG 1.1//EN" "http://www.w3.org/Graphics/SVG/1.1/DTD/svg11.dtd">
<svg version="1.1" id="레이어_1" xmlns="http://www.w3.org/2000/svg" xmlns:xlink="http://www.w3.org/1999/xlink" x="0px"
	 y="0px" width="671.134px" height="81.042px" viewBox="0 0 671.134 81.042" enable-background="new 0 0 671.134 81.042"
	 xml:space="preserve">
<g>
	<path fill="#666666" d="M4.855,71.542h-0.5v-68.4h42.1v0.5l7.8,7.9v41.6h-4.3v4.4h-17.4v21.8h-19.8L4.855,71.542z M20.155,67.042
		v-21.9h17.5v-4.3h4.3v-33.2h-33.1v59.4H20.155z M20.155,38.242v-23.6h10.5v23.6H20.155z"/>
	<path fill="#666666" d="M52.854,71.542h-0.5v-68.4h42.2v0.5l12.2,12.3v54.7h-4.4v4.301h-4.3v4.399h-37.3L52.854,71.542z
		 M85.754,67.042v-4.4h4.3v-4.3h4.4v-46.3h-4.4v-4.4h-33.2v59.4H85.754z M68.254,60.042v-45.4h14.8v41.1h-4.3v4.3H68.254z"/>
	<path fill="#666666" d="M130.554,29.341h14v0.5l7.8,7.9v15.399h-21.8v26.2h-19.8l-7.9-7.8h-0.5v-68.4h46.6v0.5l7.8,7.9v15.5h-26.2
		V29.341z M118.254,67.042v-26.2h21.8v-7h-21.8v-19.2h26.2v-7h-37.6v59.4H118.254z"/>
	<path fill="#666666" d="M182.854,71.542h-0.5v-68.4h42.2v0.5l12.199,12.3v54.7h-4.398v4.301h-4.301v4.399h-37.3L182.854,71.542z
		 M215.753,67.042v-4.4h4.3v-4.3h4.4v-46.3h-4.4v-4.4h-33.2v59.4H215.753z M198.253,60.042v-45.4h14.8v41.1h-4.3v4.3H198.253z"/>
	<path fill="#666666" d="M232.853,67.141h-0.5v-59.6h4.3v-4.4h33.5v0.5l12.1,12.3v58.2h-4.3v3.2h-30.899l-2.301-2.399h-4
		L232.853,67.141z M265.653,67.042v-4.4h4.3v-50.6h-4.3v-4.4h-24.5v4.4h-4.3v50.6h4.3v4.4H265.653z M248.153,60.042v-45.4h10.5v45.4
		H248.153z"/>
	<path fill="#666666" d="M278.053,71.542h-0.5v-68.4h20.3v0.5l3.899,3.9h10.7v-4.4h20.3v0.5l7.9,7.9v67.8h-54.8L278.053,71.542z
		 M328.252,67.042v-59.4h-11.3v52.4h-6.1v-48h-11.4v48h-6.1v-52.4h-11.3v59.4H328.252z"/>
	<path fill="#666666" d="M339.853,71.542h-0.5v-68.4h20.399v0.5l5.801,5.8v-6.3h20.399v0.5l7.8,7.9v67.8h-19.899l-6.3-6.3v6.3
		h-19.801L339.853,71.542z M355.252,67.042v-39.3h1.7v4.4h4.3v4.3h4.5v4.4h4.301v26.2h11.399v-59.4h-11.399v21.9h-1.7v-4.4h-4.4
		v-4.4h-4.399v-4.4h-4.301v-8.7h-11.399v59.4H355.252z"/>
	<path fill="#666666" d="M417.553,55.542h13.899v0.5l7.8,7.9v15.399h-41.5l-7.899-7.8h-0.5v-68.4h20.3v0.5l7.9,7.9V55.542z
		 M426.953,67.042v-7h-21.8v-52.4h-11.3v59.4H426.953z"/>
	<path fill="#666666" d="M434.852,67.141h-0.5v-59.6h4.3v-4.4h33.5v0.5l12.1,12.3v58.2h-4.3v3.2h-30.899l-2.301-2.399h-4
		L434.852,67.141z M467.652,67.042v-4.4h4.3v-50.6h-4.3v-4.4h-24.5v4.4h-4.3v50.6h4.3v4.4H467.652z M450.152,60.042v-45.4h10.5v45.4
		H450.152z"/>
	<path fill="#666666" d="M479.852,71.542h-0.5v-68.4h46.6v0.5l7.8,7.9v67.8h-19.899l-6.3-6.3v6.3h-19.801L479.852,71.542z
		 M495.251,67.042v-21.9h14.801v21.9h11.399v-59.4h-37.6v59.4H495.251z M495.251,38.242v-23.6h14.801v23.6H495.251z"/>
	<path fill="#666666" d="M529.852,71.542h-0.5v-68.4h42.2v0.5l12.199,12.3v54.7h-4.399v4.301h-4.3v4.399h-37.301L529.852,71.542z
		 M562.751,67.042v-4.4h4.301v-4.3h4.399v-46.3h-4.399v-4.4h-33.2v59.4H562.751z M545.251,60.042v-45.4h14.801v41.1h-4.301v4.3
		H545.251z"/>
	<path fill="#666666" d="M581.052,72.141h-0.601v-24.6h20.4v0.5l7.8,7.8v24.2h-19.8L581.052,72.141z M596.352,67.641v-15.6h-11.4
		v15.6H596.352z"/>
	<path fill="#666666" d="M610.051,72.141h-0.601v-24.6h20.4v0.5l7.8,7.8v24.2h-19.8L610.051,72.141z M625.351,67.641v-15.6h-11.4
		v15.6H625.351z"/>
	<path fill="#666666" d="M639.051,72.141h-0.601v-24.6h20.4v0.5l7.8,7.8v24.2h-19.8L639.051,72.141z M654.351,67.641v-15.6h-11.4
		v15.6H654.351z"/>
</g>
</svg>
