<?xml version="1.0" encoding="utf-8"?>
<!-- Generator: Adobe Illustrator 16.0.0, SVG Export Plug-In . SVG Version: 6.00 Build 0)  -->
<!DOCTYPE svg PUBLIC "-//W3C//DTD SVG 1.1//EN" "http://www.w3.org/Graphics/SVG/1.1/DTD/svg11.dtd">
<svg version="1.1" id="레이어_1" xmlns="http://www.w3.org/2000/svg" xmlns:xlink="http://www.w3.org/1999/xlink" x="0px"
	 y="0px" width="1281.048px" height="266.41px" viewBox="0 0 1281.048 266.41" enable-background="new 0 0 1281.048 266.41"
	 xml:space="preserve">
<g>
	<path fill="#CCCCCC" d="M8.3,219.41v-198h125.4v110.701H119v5.699h14.7v81.6H95.6v-72.899H46.4v72.899H8.3z M95.6,123.41v-78.6
		H46.4v78.6H95.6z"/>
	<path fill="#CCCCCC" d="M172.7,220.311v-14.699h-14.4v-110.4h14.4v-14.7h96v81.601h-14.4v14.399h-58.2v20.399h72.6v23.4H172.7z
		 M230.9,153.41v-49.5h-34.8v49.5H230.9z"/>
	<path fill="#CCCCCC" d="M293.299,220.311v-23.4h72.601v-34.799h-58.2V147.41h-14.4V95.211h14.4v-14.7h96v23.399h-72.601v34.801
		h58.2v14.699h14.4v52.201h-14.4v14.699H293.299z"/>
	<path fill="#CCCCCC" d="M428.298,264.711v-183.6h96v14.699h14.4v96h-14.4v14.7h-58.2v58.2H428.298z M500.898,183.111v-78.601
		h-34.801v78.601H500.898z"/>
	<path fill="#CCCCCC" d="M577.697,220.011v-14.399h-14.4v-125.4h14.4v-14.4h81.6v14.4h14.4v125.4h-14.4v14.399H577.697z
		 M635.897,196.611v-107.4h-34.801v107.4H635.897z"/>
	<path fill="#CCCCCC" d="M698.296,220.311v-139.8h96v14.7h14.4v125.1h-37.8v-116.4h-34.801v116.4H698.296z"/>
	<path fill="#CCCCCC" d="M833.295,220.311v-23.4h72.601v-34.799h-58.2V147.41h-14.4V95.211h14.4v-14.7h96v23.399h-72.601v34.801
		h58.2v14.699h14.4v52.201h-14.4v14.699H833.295z"/>
	<path fill="#CCCCCC" d="M967.094,73.611v-66.9h37.801v66.9H967.094z M967.094,219.111V94.011h37.801v125.101H967.094z"/>
	<path fill="#CCCCCC" d="M1071.793,220.311v-14.699h-14.399v-14.4h-14.7v-14.7h-14.4v-96h37.8v87.3h14.4v14.7h6v-14.7h14.4v-87.3
		h37.8v96h-14.4v14.7h-14.7v14.4h-14.399v14.699H1071.793z"/>
	<path fill="#CCCCCC" d="M1177.692,220.311v-14.699h-14.4v-110.4h14.4v-14.7h96v81.601h-14.4v14.399h-58.2v20.399h72.601v23.4
		H1177.692z M1235.893,153.41v-49.5h-34.801v49.5H1235.893z"/>
</g>
</svg>
