<?xml version="1.0" encoding="utf-8"?>
<!-- Generator: Adobe Illustrator 16.0.0, SVG Export Plug-In . SVG Version: 6.00 Build 0)  -->
<!DOCTYPE svg PUBLIC "-//W3C//DTD SVG 1.1//EN" "http://www.w3.org/Graphics/SVG/1.1/DTD/svg11.dtd">
<svg version="1.1" id="레이어_1" xmlns="http://www.w3.org/2000/svg" xmlns:xlink="http://www.w3.org/1999/xlink" x="0px"
	 y="0px" width="1194px" height="274px" viewBox="0 0 1194 274" enable-background="new 0 0 1194 274" xml:space="preserve">
<g>
	<path fill="#CCCCCC" d="M9.399,223.798v-198h37.8v174.601h20.4V40.499h37.8v159.899h20.4V25.798h37.8v198H9.399z"/>
	<path fill="#CCCCCC" d="M203.196,224.398v-14.4h-14.4v-125.4h14.4v-14.4h81.6v14.4h14.4v125.4h-14.4v14.4H203.196z
		 M261.396,200.998v-107.4h-34.8v107.4H261.396z"/>
	<path fill="#CCCCCC" d="M323.495,224.398V70.197h37.8v29.101h58.2v23.399h-58.2v101.702H323.495z"/>
	<path fill="#CCCCCC" d="M443.193,223.498v-14.4h-14.4v-96.3h14.4v-14.4h58.199v-87.3h37.801v212.4H443.193z M501.393,200.098v-78.3
		h-34.8v78.3H501.393z"/>
	<path fill="#CCCCCC" d="M563.792,269.098v-183.6h96v14.699h14.4v96h-14.4v14.701h-58.2v58.199H563.792L563.792,269.098z
		 M636.392,187.498v-78.6h-34.8v78.6H636.392z"/>
	<path fill="#CCCCCC" d="M698.491,224.398V70.197h37.8v29.101h58.201v23.399h-58.201v101.702H698.491z"/>
	<path fill="#CCCCCC" d="M818.188,224.697v-14.699h-14.4v-110.4h14.4v-14.7h96v81.6h-14.4v14.4h-58.201v20.398h72.602v23.398h-96
		V224.697z M876.388,157.798v-49.5h-34.8v49.5H876.388z"/>
	<path fill="#CCCCCC" d="M938.787,224.697v-23.399h72.602v-34.8h-58.202v-14.7h-14.399v-52.2h14.399v-14.7h96v23.399h-72.6v34.801
		h58.199v14.699h14.4v52.2h-14.4v14.698h-95.999V224.697z"/>
	<path fill="#CCCCCC" d="M1073.787,224.697v-23.399h72.6v-34.8h-58.198v-14.7h-14.4v-52.2h14.4v-14.7h96v23.399h-72.603v34.801
		h58.201v14.699h14.399v52.2h-14.399v14.698h-96V224.697z"/>
</g>
</svg>
